<svg width="32" height="32" viewBox="0 0 32 32" fill="none" xmlns="http://www.w3.org/2000/svg">
<path d="M31.0253 6.74496C30.4846 5.42872 29.6981 4.23236 28.7096 3.22255C27.7239 2.21097 26.5532 1.40671 25.2637 0.85543C23.9427 0.28794 22.5234 -0.00295546 21.0901 2.26371e-05H21.0419C19.584 0.00739684 18.1744 0.302365 16.8466 0.882468C15.5682 1.4394 14.4084 2.24509 13.4321 3.2545C12.4531 4.26205 11.6756 5.45423 11.1429 6.76462C10.5899 8.12728 10.3097 9.58901 10.3188 11.0638C10.326 12.7697 10.726 14.4633 11.473 15.9775V19.7137C11.473 20.3381 11.9694 20.8444 12.579 20.8444H16.237C17.7283 21.612 19.3739 22.0159 21.0443 22.0243H21.0949C22.5359 22.0243 23.9311 21.7392 25.2468 21.1812C26.5298 20.6365 27.6962 19.8416 28.6806 18.8411C29.6734 17.8358 30.4542 16.6608 31.0012 15.3506C31.5675 13.9938 31.8566 12.5509 31.8638 11.0613C31.8687 9.56436 31.5843 8.11164 31.0253 6.74496Z" fill="url(#paint0_linear_106_41)"/>
<path d="M25.1954 7.46319H24.4916V6.58859C24.4916 6.42704 24.3572 6.29706 24.19 6.29706H16.7507C16.5836 6.29706 16.4491 6.42704 16.4491 6.58859V9.89262C16.4491 10.0542 16.5836 10.1841 16.7507 10.1841H24.19C24.3572 10.1841 24.4916 10.0542 24.4916 9.89262V8.24061H24.8938V10.67H20.4829C20.2052 10.67 19.9803 10.8875 19.9803 11.1559V12.8079H19.4273C19.3721 12.8079 19.3268 12.8517 19.3268 12.9051V15.6747C19.3268 15.688 19.3293 15.7014 19.3344 15.7123C19.3293 15.7317 19.3268 15.7512 19.3268 15.7718C19.3268 16.3355 19.7993 16.7922 20.3824 16.7922C20.9655 16.7922 21.438 16.3355 21.438 15.7718C21.438 15.7512 21.4355 15.7317 21.4304 15.7123C21.4355 15.7002 21.438 15.688 21.438 15.6747V12.9051C21.438 12.8517 21.3927 12.8079 21.3374 12.8079H20.7845V11.4474H25.1954C25.4731 11.4474 25.698 11.23 25.698 10.9616V7.94907C25.698 7.68062 25.4731 7.46319 25.1954 7.46319Z" fill="white"/>
<path d="M7.65148 22.2569C8.30803 21.5864 8.43146 21.042 7.74821 20.3442C7.09165 19.6736 6.53008 19.8261 5.90066 20.4689L5.57238 20.8041L5.13468 20.3571C4.45186 19.6598 3.931 19.7984 3.27444 20.4689L0.648222 23.151C-0.0210269 23.8344 0.0564469 24.1487 0.739264 24.846L6.86711 31.1042C7.55124 31.8029 7.85938 31.8824 8.52863 31.199L11.1549 28.5169C11.8114 27.8464 11.9467 27.314 11.2625 26.6153L10.8248 26.1683L11.1531 25.833C11.7825 25.1902 11.9064 24.5908 11.2498 23.9203C10.5661 23.222 10.0588 23.3745 9.40229 24.045L9.07401 24.3802L7.3232 22.5922L7.65148 22.2569Z" fill="#177DDC"/>
<defs>
<linearGradient id="paint0_linear_106_41" x1="9.25506" y1="-1.29797e-08" x2="15.9941" y2="31.6784" gradientUnits="userSpaceOnUse">
<stop stop-color="#164C7E"/>
<stop offset="1" stop-color="#320E96"/>
</linearGradient>
</defs>
</svg>
