<svg width="32" height="32" viewBox="0 0 32 32" fill="none" xmlns="http://www.w3.org/2000/svg">
<path d="M31.1839 6.42675C30.6578 5.17261 29.8925 4.03269 28.9305 3.07052C27.9714 2.10667 26.8322 1.34035 25.5774 0.815073C24.292 0.274356 22.9109 -0.00281603 21.5161 2.15692e-05H21.4692C20.0506 0.00704788 18.6789 0.2881 17.3869 0.840836C16.1429 1.3715 15.0143 2.13918 14.0642 3.10096C13.1116 4.06098 12.355 5.19691 11.8366 6.44549C11.2985 7.74386 11.0259 9.13663 11.0347 10.5418C11.0417 12.1672 11.431 13.781 12.1579 15.2237V18.7837C12.1579 19.3786 12.6409 19.861 13.2341 19.861H16.7936C18.2448 20.5925 19.8462 20.9773 21.4716 20.9853H21.5208C22.923 20.9853 24.2807 20.7136 25.561 20.1819C26.8094 19.6629 27.9444 18.9055 28.9024 17.9522C29.8685 16.9943 30.6282 15.8748 31.1605 14.6265C31.7115 13.3336 31.9929 11.9588 31.9999 10.5395C32.0046 9.11314 31.7279 7.72896 31.1839 6.42675Z" fill="url(#paint0_linear_106_38)"/>
<path d="M10.9091 20.0965H10.0313V18.9805C10.0313 18.7744 9.86364 18.6085 9.65517 18.6085H0.376176C0.167712 18.6085 0 18.7744 0 18.9805V23.1964C0 23.4025 0.167712 23.5683 0.376176 23.5683H9.65517C9.86364 23.5683 10.0313 23.4025 10.0313 23.1964V21.0884H10.5329V24.1883H5.03135C4.68495 24.1883 4.40439 24.4658 4.40439 24.8083V26.9162H3.71473C3.64577 26.9162 3.58934 26.972 3.58934 27.0402V30.5741C3.58934 30.5911 3.59248 30.6082 3.59875 30.6221C3.59248 30.6469 3.58934 30.6717 3.58934 30.6981C3.58934 31.4172 4.17868 32 4.90596 32C5.63323 32 6.22257 31.4172 6.22257 30.6981C6.22257 30.6717 6.21944 30.6469 6.21317 30.6221C6.21944 30.6066 6.22257 30.5911 6.22257 30.5741V27.0402C6.22257 26.972 6.16614 26.9162 6.09718 26.9162H5.40752V25.1803H10.9091C11.2555 25.1803 11.5361 24.9028 11.5361 24.5603V20.7165C11.5361 20.3739 11.2555 20.0965 10.9091 20.0965Z" fill="#177DDC"/>
<path d="M26.8538 12.5247L26.0049 11.7749C26.0451 11.5201 26.0659 11.2599 26.0659 11.0011C26.0659 10.7422 26.0451 10.4807 26.0049 10.2272L26.8538 9.47751C26.9179 9.42079 26.9638 9.34524 26.9854 9.26091C27.0069 9.17658 27.0031 9.08747 26.9745 9.00542L26.9628 8.97055C26.7292 8.29552 26.3791 7.66982 25.9296 7.12375L25.9062 7.09559C25.8516 7.02927 25.7789 6.98159 25.6976 6.95885C25.6162 6.9361 25.5301 6.93936 25.4506 6.96817L24.3967 7.35577C24.0073 7.02584 23.5737 6.76566 23.1038 6.5846L22.9001 5.44594C22.8847 5.36016 22.8444 5.28125 22.7846 5.21968C22.7248 5.15811 22.6483 5.11681 22.5652 5.10126L22.5301 5.09455C21.8552 4.96848 21.1439 4.96848 20.4689 5.09455L20.4339 5.10126C20.3508 5.11681 20.2743 5.15811 20.2144 5.21968C20.1546 5.28125 20.1143 5.36016 20.099 5.44594L19.8939 6.58996C19.4285 6.77246 18.9949 7.03202 18.6102 7.35846L17.5484 6.96817C17.4689 6.93913 17.3828 6.93576 17.3014 6.95852C17.22 6.98128 17.1473 7.02908 17.0928 7.09559L17.0694 7.12375C16.6207 7.6704 16.2707 8.29595 16.0362 8.97055L16.0245 9.00542C15.9661 9.17307 16.0142 9.36083 16.1453 9.47751L17.0045 10.2353C16.9643 10.4874 16.9448 10.7449 16.9448 10.9997C16.9448 11.2573 16.9643 11.5148 17.0045 11.7642L16.1479 12.522C16.0837 12.5787 16.0378 12.6543 16.0163 12.7386C15.9947 12.8229 15.9985 12.912 16.0271 12.9941L16.0388 13.0289C16.2738 13.7036 16.6203 14.3272 17.072 14.8757L17.0954 14.9039C17.15 14.9702 17.2227 15.0179 17.3041 15.0406C17.3854 15.0634 17.4715 15.0601 17.551 15.0313L18.6128 14.641C18.9996 14.9696 19.4305 15.2298 19.8965 15.4095L20.1016 16.5536C20.1169 16.6393 20.1572 16.7182 20.217 16.7798C20.2768 16.8414 20.3534 16.8827 20.4365 16.8982L20.4715 16.9049C21.1531 17.0317 21.8511 17.0317 22.5327 16.9049L22.5678 16.8982C22.6508 16.8827 22.7274 16.8414 22.7872 16.7798C22.847 16.7182 22.8873 16.6393 22.9027 16.5536L23.1064 15.4149C23.5763 15.2325 24.0098 14.9736 24.3993 14.6437L25.4532 15.0313C25.5327 15.0604 25.6189 15.0637 25.7002 15.041C25.7816 15.0182 25.8544 14.9704 25.9088 14.9039L25.9322 14.8757C26.3839 14.3245 26.7305 13.7036 26.9654 13.0289L26.9771 12.9941C27.0329 12.8278 26.9849 12.6413 26.8538 12.5247ZM21.5021 13.2248C20.2418 13.2248 19.2202 12.1693 19.2202 10.867C19.2202 9.56469 20.2418 8.50918 21.5021 8.50918C22.7625 8.50918 23.784 9.56469 23.784 10.867C23.784 12.1693 22.7625 13.2248 21.5021 13.2248Z" fill="white"/>
<defs>
<linearGradient id="paint0_linear_106_38" x1="9.16217" y1="-1.31141e-08" x2="15.9724" y2="32.0059" gradientUnits="userSpaceOnUse">
<stop stop-color="#167E20"/>
<stop offset="1" stop-color="#C9CD1A"/>
</linearGradient>
</defs>
</svg>
