<svg width="32" height="32" viewBox="0 0 32 32" fill="none" xmlns="http://www.w3.org/2000/svg">
<path d="M31.1839 6.42675C30.6578 5.17261 29.8925 4.03269 28.9305 3.07052C27.9714 2.10667 26.8322 1.34035 25.5774 0.815073C24.292 0.274356 22.9109 -0.00281603 21.5161 2.15692e-05H21.4692C20.0506 0.00704788 18.6789 0.2881 17.3869 0.840836C16.1429 1.3715 15.0143 2.13918 14.0642 3.10096C13.1116 4.06098 12.355 5.19691 11.8366 6.44549C11.2985 7.74386 11.0259 9.13663 11.0347 10.5418C11.0417 12.1672 11.431 13.781 12.1579 15.2237V18.7837C12.1579 19.3786 12.6409 19.861 13.2341 19.861H16.7936C18.2448 20.5925 19.8462 20.9773 21.4716 20.9853H21.5208C22.923 20.9853 24.2807 20.7136 25.561 20.1819C26.8094 19.6629 27.9444 18.9055 28.9024 17.9522C29.8685 16.9943 30.6282 15.8748 31.1605 14.6265C31.7115 13.3336 31.9929 11.9588 31.9999 10.5395C32.0046 9.11314 31.7279 7.72896 31.1839 6.42675Z" fill="url(#paint0_linear_106_36)"/>
<path d="M10.9091 20.0965H10.0313V18.9805C10.0313 18.7744 9.86364 18.6085 9.65517 18.6085H0.376176C0.167712 18.6085 0 18.7744 0 18.9805V23.1964C0 23.4025 0.167712 23.5683 0.376176 23.5683H9.65517C9.86364 23.5683 10.0313 23.4025 10.0313 23.1964V21.0884H10.5329V24.1883H5.03135C4.68495 24.1883 4.40439 24.4658 4.40439 24.8083V26.9162H3.71473C3.64577 26.9162 3.58934 26.972 3.58934 27.0402V30.5741C3.58934 30.5911 3.59248 30.6082 3.59875 30.6221C3.59248 30.6469 3.58934 30.6717 3.58934 30.6981C3.58934 31.4172 4.17868 32 4.90596 32C5.63323 32 6.22257 31.4172 6.22257 30.6981C6.22257 30.6717 6.21944 30.6469 6.21317 30.6221C6.21944 30.6066 6.22257 30.5911 6.22257 30.5741V27.0402C6.22257 26.972 6.16614 26.9162 6.09718 26.9162H5.40752V25.1803H10.9091C11.2555 25.1803 11.5361 24.9028 11.5361 24.5603V20.7165C11.5361 20.3739 11.2555 20.0965 10.9091 20.0965Z" fill="#177DDC"/>
<path d="M26.6424 13.793C26.3645 13.1194 25.9613 12.5075 25.4551 11.9915C24.9505 11.4739 24.3528 11.0613 23.6949 10.7764C23.689 10.7734 23.6831 10.7719 23.6772 10.7688C24.5949 10.0905 25.1915 8.98543 25.1915 7.73869C25.1915 5.67337 23.5565 4 21.5385 4C19.5205 4 17.8855 5.67337 17.8855 7.73869C17.8855 8.98543 18.482 10.0905 19.3997 10.7704C19.3938 10.7734 19.3879 10.7749 19.382 10.7779C18.7221 11.0628 18.13 11.4714 17.6218 11.993C17.1161 12.5094 16.713 13.1212 16.4346 13.7945C16.1611 14.4536 16.0136 15.1604 16 15.8764C15.9996 15.8925 16.0024 15.9085 16.0081 15.9235C16.0139 15.9384 16.0225 15.9521 16.0335 15.9636C16.0445 15.9751 16.0576 15.9843 16.0721 15.9905C16.0866 15.9968 16.1021 16 16.1179 16H17.0017C17.0665 16 17.118 15.9472 17.1195 15.8824C17.149 14.7186 17.6056 13.6286 18.4128 12.8025C19.248 11.9477 20.3571 11.4774 21.5385 11.4774C22.7198 11.4774 23.829 11.9477 24.6641 12.8025C25.4713 13.6286 25.928 14.7186 25.9574 15.8824C25.9589 15.9487 26.0104 16 26.0753 16H26.959C26.9748 16 26.9903 15.9968 27.0048 15.9905C27.0193 15.9843 27.0324 15.9751 27.0434 15.9636C27.0544 15.9521 27.063 15.9384 27.0688 15.9235C27.0745 15.9085 27.0773 15.8925 27.0769 15.8764C27.0622 15.1558 26.9163 14.4548 26.6424 13.793ZM21.5385 10.3317C20.8624 10.3317 20.226 10.0618 19.7473 9.57186C19.2686 9.08191 19.0049 8.43065 19.0049 7.73869C19.0049 7.04673 19.2686 6.39548 19.7473 5.90553C20.226 5.41558 20.8624 5.14573 21.5385 5.14573C22.2146 5.14573 22.8509 5.41558 23.3296 5.90553C23.8083 6.39548 24.072 7.04673 24.072 7.73869C24.072 8.43065 23.8083 9.08191 23.3296 9.57186C22.8509 10.0618 22.2146 10.3317 21.5385 10.3317Z" fill="white"/>
<defs>
<linearGradient id="paint0_linear_106_36" x1="9.16217" y1="-1.31141e-08" x2="15.9724" y2="32.0059" gradientUnits="userSpaceOnUse">
<stop stop-color="#164C7E"/>
<stop offset="1" stop-color="#320E96"/>
</linearGradient>
</defs>
</svg>
