<svg width="32" height="32" viewBox="0 0 32 32" fill="none" xmlns="http://www.w3.org/2000/svg">
<path d="M31.1839 6.42675C30.6578 5.17261 29.8925 4.03269 28.9305 3.07052C27.9714 2.10667 26.8322 1.34035 25.5774 0.815073C24.292 0.274356 22.9109 -0.00281603 21.5161 2.15692e-05H21.4692C20.0506 0.00704788 18.6789 0.2881 17.3869 0.840836C16.1429 1.3715 15.0143 2.13918 14.0642 3.10096C13.1116 4.06098 12.355 5.19691 11.8366 6.44549C11.2985 7.74386 11.0259 9.13663 11.0347 10.5418C11.0417 12.1672 11.431 13.781 12.1579 15.2237V18.7837C12.1579 19.3786 12.6409 19.861 13.2341 19.861H16.7936C18.2448 20.5925 19.8462 20.9773 21.4716 20.9853H21.5208C22.923 20.9853 24.2807 20.7136 25.561 20.1819C26.8094 19.6629 27.9444 18.9055 28.9024 17.9522C29.8685 16.9943 30.6282 15.8748 31.1605 14.6265C31.7115 13.3336 31.9929 11.9588 31.9999 10.5395C32.0046 9.11314 31.7279 7.72896 31.1839 6.42675Z" fill="url(#paint0_linear_106_39)"/>
<path d="M10.9091 20.0965H10.0313V18.9805C10.0313 18.7744 9.86364 18.6085 9.65517 18.6085H0.376176C0.167712 18.6085 0 18.7744 0 18.9805V23.1964C0 23.4025 0.167712 23.5683 0.376176 23.5683H9.65517C9.86364 23.5683 10.0313 23.4025 10.0313 23.1964V21.0884H10.5329V24.1883H5.03135C4.68495 24.1883 4.40439 24.4658 4.40439 24.8083V26.9162H3.71473C3.64577 26.9162 3.58934 26.972 3.58934 27.0402V30.5741C3.58934 30.5911 3.59248 30.6082 3.59875 30.6221C3.59248 30.6469 3.58934 30.6717 3.58934 30.6981C3.58934 31.4172 4.17868 32 4.90596 32C5.63323 32 6.22257 31.4172 6.22257 30.6981C6.22257 30.6717 6.21944 30.6469 6.21317 30.6221C6.21944 30.6066 6.22257 30.5911 6.22257 30.5741V27.0402C6.22257 26.972 6.16614 26.9162 6.09718 26.9162H5.40752V25.1803H10.9091C11.2555 25.1803 11.5361 24.9028 11.5361 24.5603V20.7165C11.5361 20.3739 11.2555 20.0965 10.9091 20.0965Z" fill="#177DDC"/>
<path d="M24.6469 11.1608C24.4212 10.5995 24.0935 10.0896 23.6823 9.65955C23.2723 9.22828 22.7866 8.88443 22.2521 8.64699C22.2473 8.64447 22.2425 8.64322 22.2378 8.6407C22.9834 8.07538 23.4681 7.15452 23.4681 6.11558C23.4681 4.39447 22.1396 3 20.5 3C18.8604 3 17.5319 4.39447 17.5319 6.11558C17.5319 7.15452 18.0166 8.07538 18.7622 8.64196C18.7575 8.64447 18.7527 8.64573 18.7479 8.64824C18.2117 8.88568 17.7306 9.22613 17.3177 9.6608C16.9069 10.0912 16.5793 10.601 16.3531 11.1621C16.1309 11.7114 16.011 12.3003 16 12.897C15.9997 12.9104 16.0019 12.9237 16.0066 12.9362C16.0113 12.9487 16.0183 12.9601 16.0272 12.9697C16.0361 12.9793 16.0468 12.9869 16.0586 12.9921C16.0703 12.9973 16.083 13 16.0958 13H16.8139C16.8665 13 16.9084 12.956 16.9096 12.902C16.9335 11.9322 17.3045 11.0239 17.9604 10.3354C18.639 9.62312 19.5402 9.23116 20.5 9.23116C21.4598 9.23116 22.361 9.62312 23.0396 10.3354C23.6955 11.0239 23.6584 8.6897 23.6823 9.65955C23.6835 9.71482 24.1335 13 24.1861 13H24.9042C24.2176 10.3354 24.9297 12.9973 24.9414 12.9921C24.9532 12.9869 24.9639 12.9793 24.9728 12.9697C24.9817 12.9601 24.9887 12.9487 24.9934 12.9362C24.998 12.9237 25.0003 12.9104 25 12.897C24.988 12.2965 24.8695 11.7123 24.6469 11.1608ZM20.5 8.27638C19.9507 8.27638 19.4337 8.05151 19.0447 7.64322C18.6557 7.23492 18.4415 6.69221 18.4415 6.11558C18.4415 5.53894 18.6557 4.99623 19.0447 4.58794C19.4337 4.17965 19.9507 3.95477 20.5 3.95477C21.0493 3.95477 21.5663 4.17965 21.9553 4.58794C22.3443 4.99623 22.5585 5.53894 22.5585 6.11558C22.5585 6.69221 22.3443 7.23492 21.9553 7.64322C21.5663 8.05151 21.0493 8.27638 20.5 8.27638Z" fill="white"/>
<path d="M26.8937 14.6435L26.2763 14.0812C26.3055 13.8901 26.3206 13.695 26.3206 13.5008C26.3206 13.3067 26.3055 13.1105 26.2763 12.9204L26.8937 12.3581C26.9403 12.3156 26.9737 12.2589 26.9893 12.1957C27.005 12.1324 27.0023 12.0656 26.9814 12.0041L26.9729 11.9779C26.803 11.4716 26.5485 11.0024 26.2215 10.5928L26.2045 10.5717C26.1648 10.5219 26.1119 10.4862 26.0528 10.4691C25.9936 10.4521 25.931 10.4545 25.8732 10.4761L25.1067 10.7668C24.8235 10.5194 24.5082 10.3242 24.1664 10.1884L24.0182 9.33446C24.007 9.27012 23.9778 9.21094 23.9343 9.16476C23.8907 9.11859 23.8351 9.08761 23.7747 9.07594L23.7492 9.07091C23.2583 8.97636 22.741 8.97636 22.2501 9.07091L22.2246 9.07594C22.1642 9.08761 22.1085 9.11859 22.065 9.16476C22.0215 9.21094 21.9923 9.27012 21.9811 9.33446L21.8319 10.1925C21.4934 10.3293 21.1781 10.524 20.8983 10.7688L20.1261 10.4761C20.0683 10.4543 20.0056 10.4518 19.9465 10.4689C19.8873 10.486 19.8344 10.5218 19.7948 10.5717L19.7778 10.5928C19.4514 11.0028 19.1969 11.472 19.0263 11.9779L19.0179 12.0041C18.9754 12.1298 19.0103 12.2706 19.1056 12.3581L19.7306 12.9265C19.7013 13.1156 19.6871 13.3087 19.6871 13.4998C19.6871 13.6929 19.7013 13.8861 19.7306 14.0732L19.1075 14.6415C19.0609 14.684 19.0275 14.7407 19.0118 14.8039C18.9962 14.8672 18.9989 14.934 19.0197 14.9956L19.0282 15.0217C19.1991 15.5277 19.4511 15.9954 19.7797 16.4068L19.7967 16.4279C19.8364 16.4777 19.8893 16.5134 19.9484 16.5305C20.0076 16.5475 20.0702 16.5451 20.128 16.5235L20.9002 16.2308C21.1815 16.4772 21.4949 16.6724 21.8338 16.8071L21.983 17.6652C21.9941 17.7295 22.0234 17.7887 22.0669 17.8349C22.1104 17.881 22.1661 17.912 22.2265 17.9237L22.252 17.9287C22.7477 18.0238 23.2554 18.0238 23.7511 17.9287L23.7766 17.9237C23.837 17.912 23.8926 17.881 23.9361 17.8349C23.9796 17.7887 24.0089 17.7295 24.0201 17.6652L24.1683 16.8112C24.51 16.6744 24.8253 16.4802 25.1085 16.2328L25.8751 16.5235C25.9329 16.5453 25.9955 16.5478 26.0547 16.5307C26.1139 16.5137 26.1668 16.4778 26.2064 16.4279L26.2234 16.4068C26.5519 15.9934 26.804 15.5277 26.9748 15.0217L26.9833 14.9956C27.0239 14.8708 26.989 14.731 26.8937 14.6435ZM23.0015 15.1686C22.0849 15.1686 21.342 14.3769 21.342 13.4002C21.342 12.4235 22.0849 11.6319 23.0015 11.6319C23.9182 11.6319 24.6611 12.4235 24.6611 13.4002C24.6611 14.3769 23.9182 15.1686 23.0015 15.1686Z" fill="white"/>
<defs>
<linearGradient id="paint0_linear_106_39" x1="9.16217" y1="-1.31141e-08" x2="15.9724" y2="32.0059" gradientUnits="userSpaceOnUse">
<stop stop-color="#164C7E"/>
<stop offset="1" stop-color="#320E96"/>
</linearGradient>
</defs>
</svg>
