<svg width="32" height="32" viewBox="0 0 32 32" fill="none" xmlns="http://www.w3.org/2000/svg">
<path d="M31.1839 6.42675C30.6578 5.17261 29.8925 4.03269 28.9305 3.07052C27.9714 2.10667 26.8322 1.34035 25.5774 0.815073C24.292 0.274356 22.9109 -0.00281603 21.5161 2.15692e-05H21.4692C20.0506 0.00704788 18.6789 0.2881 17.3869 0.840836C16.1428 1.3715 15.0143 2.13918 14.0642 3.10096C13.1116 4.06098 12.355 5.19691 11.8366 6.44549C11.2985 7.74386 11.0258 9.13663 11.0347 10.5418C11.0417 12.1672 11.431 13.781 12.1579 15.2237V18.7837C12.1579 19.3786 12.6409 19.861 13.2341 19.861H16.7936C18.2448 20.5925 19.8461 20.9773 21.4716 20.9853H21.5208C22.923 20.9853 24.2807 20.7136 25.561 20.1819C26.8094 19.6629 27.9444 18.9055 28.9024 17.9522C29.8685 16.9943 30.6282 15.8748 31.1605 14.6265C31.7115 13.3336 31.9929 11.9588 31.9999 10.5395C32.0046 9.11314 31.7279 7.72896 31.1839 6.42675Z" fill="url(#paint0_linear_106_26)"/>
<path d="M10.9091 20.0965H10.0313V18.9805C10.0313 18.7744 9.86364 18.6086 9.65517 18.6086H0.376176C0.167712 18.6086 0 18.7744 0 18.9805V23.1964C0 23.4025 0.167712 23.5683 0.376176 23.5683H9.65517C9.86364 23.5683 10.0313 23.4025 10.0313 23.1964V21.0884H10.5329V24.1883H5.03135C4.68495 24.1883 4.40439 24.4658 4.40439 24.8083V26.9162H3.71473C3.64577 26.9162 3.58934 26.972 3.58934 27.0402V30.5741C3.58934 30.5911 3.59248 30.6082 3.59875 30.6221C3.59248 30.6469 3.58934 30.6717 3.58934 30.6981C3.58934 31.4172 4.17868 32 4.90596 32C5.63323 32 6.22257 31.4172 6.22257 30.6981C6.22257 30.6717 6.21944 30.6469 6.21317 30.6221C6.21944 30.6066 6.22257 30.5911 6.22257 30.5741V27.0402C6.22257 26.972 6.16614 26.9162 6.09718 26.9162H5.40752V25.1803H10.9091C11.2555 25.1803 11.5361 24.9028 11.5361 24.5603V20.7165C11.5361 20.3739 11.2555 20.0965 10.9091 20.0965Z" fill="#177DDC"/>
<path d="M18.1154 14.9423C18.1154 15.5265 17.6418 16 17.0577 16C16.4735 16 16 15.5265 16 14.9423C16 14.3582 16.4735 13.8846 17.0577 13.8846C17.6418 13.8846 18.1154 14.3582 18.1154 14.9423Z" fill="white"/>
<path d="M27 6.05769C27 6.64184 26.5265 7.11538 25.9423 7.11538C25.3582 7.11538 24.8846 6.64184 24.8846 6.05769C24.8846 5.47354 25.3582 5 25.9423 5C26.5265 5 27 5.47354 27 6.05769Z" fill="white"/>
<path d="M21.5 12.1923C21.5 13.1269 20.7423 13.8846 19.8077 13.8846C18.8731 13.8846 18.1154 13.1269 18.1154 12.1923C18.1154 11.2577 18.8731 10.5 19.8077 10.5C20.7423 10.5 21.5 11.2577 21.5 12.1923Z" fill="white"/>
<path d="M24.8846 8.80769C24.8846 9.74233 24.1269 10.5 23.1923 10.5C22.2577 10.5 21.5 9.74233 21.5 8.80769C21.5 7.87306 22.2577 7.11539 23.1923 7.11539C24.1269 7.11539 24.8846 7.87306 24.8846 8.80769Z" fill="white"/>
<defs>
<linearGradient id="paint0_linear_106_26" x1="9.16216" y1="-1.31141e-08" x2="15.9724" y2="32.0059" gradientUnits="userSpaceOnUse">
<stop stop-color="#164C7E"/>
<stop offset="1" stop-color="#320E96"/>
</linearGradient>
</defs>
</svg>
